<?xml version="1.0"?>
<svg xmlns="http://www.w3.org/2000/svg" xmlns:xlink="http://www.w3.org/1999/xlink" xmlns:svgjs="http://svgjs.com/svgjs" version="1.1" width="512" height="512" x="0" y="0" viewBox="0 0 512 512" style="enable-background:new 0 0 512 512" xml:space="preserve" class=""><g transform="matrix(1,0,0,1,0,0)">
<circle xmlns="http://www.w3.org/2000/svg" style="" cx="256" cy="256" r="256" fill="#ffff00" data-original="#ffdc00" class=""/>
<path xmlns="http://www.w3.org/2000/svg" style="" d="M281.857,510.707C411.098,497.743,512,388.657,512,256c0-0.438-0.014-0.873-0.017-1.311  l-90.253-90.253L299.763,290.502L135.686,124.5l-47.441,20l84.797,84.589L154.92,376.846l31.109,30.516l-3.99,3.525L281.857,510.707  z" fill="#ffc000" data-original="#ffc000" class=""/>
<polygon xmlns="http://www.w3.org/2000/svg" style="" points="157.742,331.102 399.135,331.102 421.73,164.436 135.147,164.436 " fill="#1f79ff" data-original="#008cc3" class=""/>
<polygon xmlns="http://www.w3.org/2000/svg" style="" points="421.73,164.436 255.857,164.436 255.857,331.102 399.135,331.102 " fill="#0074a3" data-original="#0074a3" class=""/>
<polygon xmlns="http://www.w3.org/2000/svg" style="" points="135.147,164.436 157.742,331.102 278.438,331.102 278.438,164.436 " fill="#1f79ff" data-original="#008cc3" class=""/>
<polygon xmlns="http://www.w3.org/2000/svg" style="" points="167.376,189.346 182.317,306.038 207.593,306.038 196.581,189.346 " fill="#aae7ff" data-original="#00baff" class=""/>
<polygon xmlns="http://www.w3.org/2000/svg" style="" points="360.296,189.346 349.284,306.038 374.56,306.038 389.501,189.346 " fill="#1f79ff" data-original="#008cc3" class=""/>
<polygon xmlns="http://www.w3.org/2000/svg" style="" points="230.205,189.346 237.301,306.038 260.173,306.038 256.631,189.346 " fill="#aae7ff" data-original="#00baff" class=""/>
<polygon xmlns="http://www.w3.org/2000/svg" style="" points="300.245,189.346 296.704,306.038 319.575,306.038 326.672,189.346 " fill="#1f79ff" data-original="#008cc3" class=""/>
<circle xmlns="http://www.w3.org/2000/svg" style="" cx="356.65" cy="391.35" r="24.5" fill="#00131e" data-original="#00131e" class=""/>
<circle xmlns="http://www.w3.org/2000/svg" style="" cx="196.81" cy="391.35" r="24.5" fill="#00263f" data-original="#00263f" class=""/>
<polygon xmlns="http://www.w3.org/2000/svg" style="" points="395.936,376.846 154.92,376.846 118.572,144.5 88.245,144.5 88.245,124.5 135.686,124.5   172.034,356.846 395.936,356.846 " fill="#005c83" data-original="#005c83" class=""/>
<rect xmlns="http://www.w3.org/2000/svg" x="278.44" y="356.85" style="" width="117.5" height="20" fill="#00263f" data-original="#00263f" class=""/>
<g xmlns="http://www.w3.org/2000/svg">
</g>
<g xmlns="http://www.w3.org/2000/svg">
</g>
<g xmlns="http://www.w3.org/2000/svg">
</g>
<g xmlns="http://www.w3.org/2000/svg">
</g>
<g xmlns="http://www.w3.org/2000/svg">
</g>
<g xmlns="http://www.w3.org/2000/svg">
</g>
<g xmlns="http://www.w3.org/2000/svg">
</g>
<g xmlns="http://www.w3.org/2000/svg">
</g>
<g xmlns="http://www.w3.org/2000/svg">
</g>
<g xmlns="http://www.w3.org/2000/svg">
</g>
<g xmlns="http://www.w3.org/2000/svg">
</g>
<g xmlns="http://www.w3.org/2000/svg">
</g>
<g xmlns="http://www.w3.org/2000/svg">
</g>
<g xmlns="http://www.w3.org/2000/svg">
</g>
<g xmlns="http://www.w3.org/2000/svg">
</g>
</g></svg>
